<svg xmlns="http://www.w3.org/2000/svg" width="960" height="2914" viewBox="0 0 960 2914" role="img" aria-label="Luau reactivity benchmark results, lower is faster"><defs><style>text{font-family:'Inter','Segoe UI',system-ui,-apple-system,sans-serif;-webkit-font-smoothing:antialiased}.mono{font-family:ui-monospace,'SF Mono',Menlo,Consolas,monospace}.bg{fill:#0000}.tt{fill:#11181c}.tm{fill:#697177}.tl{fill:#3a4248}.tw{fill:#fff}.grid{stroke:#e6e9ed;stroke-width:1;stroke-dasharray:2 4}.gridkey{stroke:#c3cbd2;stroke-width:1}.zebra{fill:#11181c;opacity:.022}.b{font-weight:700}.b6{font-weight:600}.e{text-anchor:end}.m{text-anchor:middle}.o9{opacity:.9}.o7{opacity:.72}.lnk{text-decoration:none;text-decoration-thickness:.6px;}.lnk:hover{fill:#11181c}.s95{font-size:9.5px}.s93{font-size:9.3px}.s85{font-size:8.5px}.s83{font-size:8.3px}.s11{font-size:11px}.s13{font-size:13px}.s125{font-size:12.5px}.dnf{fill:#9b1c1c;font-weight:700;paint-order:stroke;stroke:#f6e4e3;stroke-width:2.6px;stroke-linejoin:round}.dnfr{fill:url(#dnf);stroke:#d99b98;stroke-width:.8px}@media (prefers-color-scheme:dark){.tt{fill:#e6edf3}.tm{fill:#8b949e}.tl{fill:#c3cbd6}.grid{stroke:#21262d}.gridkey{stroke:#3a434d}.lnk:hover{fill:#e6edf3}.zebra{fill:#fff;opacity:.025}}</style><linearGradient id="capgrad" x1="0" y1="0" x2="1" y2="0"><stop offset="0" stop-color="#fff"/><stop offset="0.86" stop-color="#fff"/><stop offset="1" stop-color="#fff" stop-opacity="0.18"/></linearGradient><mask id="capfade" maskContentUnits="objectBoundingBox"><rect width="1" height="1" fill="url(#capgrad)"/></mask><pattern id="dnf" width="6" height="6" patternUnits="userSpaceOnUse" patternTransform="rotate(45)"><rect width="6" height="6" fill="#f6e4e3"/><line x1="0" y1="0" x2="0" y2="6" stroke="#d99b98" stroke-width="2"/></pattern></defs><rect x="0" y="0" width="960" height="2914" class="bg"/><rect x="0" y="386.0" width="952" height="94.0" rx="4" class="zebra"/><rect x="0" y="576.0" width="952" height="94.0" rx="4" class="zebra"/><rect x="0" y="766.0" width="952" height="94.0" rx="4" class="zebra"/><rect x="0" y="956.0" width="952" height="94.0" rx="4" class="zebra"/><rect x="0" y="1184.0" width="952" height="94.0" rx="4" class="zebra"/><rect x="0" y="1412.0" width="952" height="94.0" rx="4" class="zebra"/><rect x="0" y="1602.0" width="952" height="94.0" rx="4" class="zebra"/><rect x="0" y="1792.0" width="952" height="94.0" rx="4" class="zebra"/><rect x="0" y="2020.0" width="952" height="94.0" rx="4" class="zebra"/><rect x="0" y="2210.0" width="952" height="94.0" rx="4" class="zebra"/><rect x="0" y="2438.0" width="952" height="94.0" rx="4" class="zebra"/><rect x="0" y="2666.0" width="952" height="94.0" rx="4" class="zebra"/><line x1="264.4" y1="68" x2="264.4" y2="2864.0" class="gridkey"/><line x1="340.8" y1="68" x2="340.8" y2="2864.0" class="grid"/><line x1="493.6" y1="68" x2="493.6" y2="2864.0" class="grid"/><line x1="646.4" y1="68" x2="646.4" y2="2864.0" class="grid"/><line x1="799.2" y1="68" x2="799.2" y2="2864.0" class="grid"/><line x1="952.0" y1="68" x2="952.0" y2="2864.0" class="grid"/><text x="0" y="16" font-size="23" font-weight="800" class="tt">Luau reactivity benchmark</text><text x="0" y="37" class="tm s125">headless luau <tspan class="mono">-O2</tspan>· per-bench process isolation · normalised per row to the fastest (shorter = faster)</text><text x="264.4" y="60" class="tm mono m s95">1×</text><text x="340.8" y="60" class="tm mono m s95">2×</text><text x="493.6" y="60" class="tm mono m s95">4×</text><text x="646.4" y="60" class="tm mono m s95">6×</text><text x="799.2" y="60" class="tm mono m s95">8×</text><text x="952.0" y="60" class="tm mono m s95">10×</text><text x="174" y="60" class="tm e s95">relative time, lower is faster →</text><text x="0" y="84" class="tl b s11" letter-spacing="0.5">OVERALL · GEOMETRIC MEAN</text><text x="952" y="84" class="tm e" font-size="10">over 22 of 22 rows · DNF charged its per-bench time cap</text><rect x="188" y="96" width="82.5" height="22" rx="4" fill="#D7397B"/><text x="176" y="111.5" class="tt b e s125"><a href="https://github.com/kohltastrophe/flux" class="lnk" target="_blank"><tspan class="tm">kohltastrophe/</tspan>flux</a><tspan class="tm s85" font-weight="500" dx="5">0.1.0</tspan></text><text x="198" y="111.5" class="tw b s125">1.08×</text><rect x="188" y="125" width="100.9" height="22" rx="4" fill="#C66300"/><text x="176" y="140.5" class="tt b e s125"><a href="https://github.com/centau/vide" class="lnk" target="_blank"><tspan class="tm">centau/</tspan>vide</a><tspan class="tm s85" font-weight="500" dx="5">0.4.0</tspan></text><text x="198" y="140.5" class="tw b s125">1.32×</text><rect x="188" y="154" width="127.0" height="22" rx="4" fill="#009C18"/><text x="176" y="169.5" class="tt b e s125"><a href="https://github.com/Roblox/signals" class="lnk" target="_blank"><tspan class="tm">roblox/</tspan>signals</a><tspan class="tm s85" font-weight="500" dx="5">0.9.0</tspan></text><text x="198" y="169.5" class="tw b s125">1.66×</text><rect x="188" y="183" width="132.2" height="22" rx="4" fill="#0098CB"/><text x="176" y="198.5" class="tt b e s125"><a href="https://github.com/littensy/charm" class="lnk" target="_blank"><tspan class="tm">littensy/</tspan>charm</a><tspan class="tm s85" font-weight="500" dx="5">0.11.0</tspan></text><text x="198" y="198.5" class="tw b s125">1.73×</text><rect x="188" y="212" width="764.0" height="22" rx="4" fill="#7F63EE" mask="url(#capfade)"/><text x="176" y="227.5" class="tt b e s125"><a href="https://github.com/elttob/fusion" class="lnk" target="_blank"><tspan class="tm">elttob/</tspan>fusion</a><tspan class="tm s85" font-weight="500" dx="5">0.3.0</tspan></text><text x="198" y="227.5" class="tw b s125">14.84×</text><text x="0" y="253" class="tl b s11" letter-spacing="0.5">PER-BENCHMARK</text><text x="0" y="279" class="tt b s13">kairo<tspan class="tm s11" font-weight="500" dx="8">propagation patterns</tspan></text><text x="174" y="339.0" class="tl mono e b6 s11">avoidable</text><text x="174" y="351.0" class="tm mono e s85">1.18 ms</text><rect x="188" y="295" width="96.2" height="14" rx="3" fill="#D7397B"/><text x="291.2" y="305.3" class="tl s93"><tspan>flux</tspan><tspan class="tt b" dx="5">1.3×</tspan><tspan class="tm s83" dx="5">1.48 ms</tspan></text><rect x="188" y="313" width="76.4" height="14" rx="3" fill="#C66300"/><text x="271.4" y="323.3" class="tl s93"><tspan>vide</tspan><tspan class="tt b" dx="5">1.0×</tspan><tspan class="tm s83" dx="5">1.18 ms</tspan></text><rect x="188" y="331" width="152.8" height="14" rx="3" fill="#009C18"/><text x="197" y="341.3" class="tw s93"><tspan class="o9">signals</tspan><tspan class="b" dx="5">2.0×</tspan><tspan class="o7 s83" dx="5">2.35 ms</tspan></text><rect x="188" y="349" width="147.8" height="14" rx="3" fill="#0098CB"/><text x="197" y="359.3" class="tw s93"><tspan class="o9">charm</tspan><tspan class="b" dx="5">1.9×</tspan><tspan class="o7 s83" dx="5">2.28 ms</tspan></text><rect x="188" y="367" width="403.2" height="14" rx="3" fill="#7F63EE"/><text x="197" y="377.3" class="tw s93"><tspan class="o9">fusion</tspan><tspan class="b" dx="5">5.3×</tspan><tspan class="o7 s83" dx="5">6.21 ms</tspan></text><text x="174" y="434.0" class="tl mono e b6 s11">broad</text><text x="174" y="446.0" class="tm mono e s85">2.80 ms</text><rect x="188" y="390" width="76.4" height="14" rx="3" fill="#D7397B"/><text x="271.4" y="400.3" class="tl s93"><tspan>flux</tspan><tspan class="tt b" dx="5">1.0×</tspan><tspan class="tm s83" dx="5">2.80 ms</tspan></text><rect x="188" y="408" width="83.8" height="14" rx="3" fill="#C66300"/><text x="278.8" y="418.3" class="tl s93"><tspan>vide</tspan><tspan class="tt b" dx="5">1.1×</tspan><tspan class="tm s83" dx="5">3.07 ms</tspan></text><rect x="188" y="426" width="112.5" height="14" rx="3" fill="#009C18"/><text x="307.5" y="436.3" class="tl s93"><tspan>signals</tspan><tspan class="tt b" dx="5">1.5×</tspan><tspan class="tm s83" dx="5">4.13 ms</tspan></text><rect x="188" y="444" width="101.2" height="14" rx="3" fill="#0098CB"/><text x="296.2" y="454.3" class="tl s93"><tspan>charm</tspan><tspan class="tt b" dx="5">1.3×</tspan><tspan class="tm s83" dx="5">3.71 ms</tspan></text><rect x="188" y="462" width="724.4" height="14" rx="3" fill="#7F63EE"/><text x="197" y="472.3" class="tw s93"><tspan class="o9">fusion</tspan><tspan class="b" dx="5">9.5×</tspan><tspan class="o7 s83" dx="5">26.6 ms</tspan></text><text x="174" y="529.0" class="tl mono e b6 s11">deep</text><text x="174" y="541.0" class="tm mono e s85">0.960 ms</text><rect x="188" y="485" width="76.4" height="14" rx="3" fill="#D7397B"/><text x="271.4" y="495.3" class="tl s93"><tspan>flux</tspan><tspan class="tt b" dx="5">1.0×</tspan><tspan class="tm s83" dx="5">0.960 ms</tspan></text><rect x="188" y="503" width="81.7" height="14" rx="3" fill="#C66300"/><text x="276.7" y="513.3" class="tl s93"><tspan>vide</tspan><tspan class="tt b" dx="5">1.1×</tspan><tspan class="tm s83" dx="5">1.03 ms</tspan></text><rect x="188" y="521" width="106.7" height="14" rx="3" fill="#009C18"/><text x="301.7" y="531.3" class="tl s93"><tspan>signals</tspan><tspan class="tt b" dx="5">1.4×</tspan><tspan class="tm s83" dx="5">1.34 ms</tspan></text><rect x="188" y="539" width="91.2" height="14" rx="3" fill="#0098CB"/><text x="286.2" y="549.3" class="tl s93"><tspan>charm</tspan><tspan class="tt b" dx="5">1.2×</tspan><tspan class="tm s83" dx="5">1.15 ms</tspan></text><rect x="188" y="557" width="439.3" height="14" rx="3" fill="#7F63EE"/><text x="197" y="567.3" class="tw s93"><tspan class="o9">fusion</tspan><tspan class="b" dx="5">5.8×</tspan><tspan class="o7 s83" dx="5">5.52 ms</tspan></text><text x="174" y="624.0" class="tl mono e b6 s11">diamond</text><text x="174" y="636.0" class="tm mono e s85">1.68 ms</text><rect x="188" y="580" width="76.4" height="14" rx="3" fill="#D7397B"/><text x="271.4" y="590.3" class="tl s93"><tspan>flux</tspan><tspan class="tt b" dx="5">1.0×</tspan><tspan class="tm s83" dx="5">1.68 ms</tspan></text><rect x="188" y="598" width="89.4" height="14" rx="3" fill="#C66300"/><text x="284.4" y="608.3" class="tl s93"><tspan>vide</tspan><tspan class="tt b" dx="5">1.2×</tspan><tspan class="tm s83" dx="5">1.96 ms</tspan></text><rect x="188" y="616" width="114.3" height="14" rx="3" fill="#009C18"/><text x="309.3" y="626.3" class="tl s93"><tspan>signals</tspan><tspan class="tt b" dx="5">1.5×</tspan><tspan class="tm s83" dx="5">2.51 ms</tspan></text><rect x="188" y="634" width="109.8" height="14" rx="3" fill="#0098CB"/><text x="304.8" y="644.3" class="tl s93"><tspan>charm</tspan><tspan class="tt b" dx="5">1.4×</tspan><tspan class="tm s83" dx="5">2.41 ms</tspan></text><rect x="188" y="652" width="444.1" height="14" rx="3" fill="#7F63EE"/><text x="197" y="662.3" class="tw s93"><tspan class="o9">fusion</tspan><tspan class="b" dx="5">5.8×</tspan><tspan class="o7 s83" dx="5">9.74 ms</tspan></text><text x="174" y="719.0" class="tl mono e b6 s11">mux</text><text x="174" y="731.0" class="tm mono e s85">1.09 ms</text><rect x="188" y="675" width="92.7" height="14" rx="3" fill="#D7397B"/><text x="287.7" y="685.3" class="tl s93"><tspan>flux</tspan><tspan class="tt b" dx="5">1.2×</tspan><tspan class="tm s83" dx="5">1.32 ms</tspan></text><rect x="188" y="693" width="76.4" height="14" rx="3" fill="#C66300"/><text x="271.4" y="703.3" class="tl s93"><tspan>vide</tspan><tspan class="tt b" dx="5">1.0×</tspan><tspan class="tm s83" dx="5">1.09 ms</tspan></text><rect x="188" y="711" width="168.9" height="14" rx="3" fill="#009C18"/><text x="197" y="721.3" class="tw s93"><tspan class="o9">signals</tspan><tspan class="b" dx="5">2.2×</tspan><tspan class="o7 s83" dx="5">2.41 ms</tspan></text><rect x="188" y="729" width="128.8" height="14" rx="3" fill="#0098CB"/><text x="323.8" y="739.3" class="tl s93"><tspan>charm</tspan><tspan class="tt b" dx="5">1.7×</tspan><tspan class="tm s83" dx="5">1.83 ms</tspan></text><rect x="188" y="747" width="764.0" height="14" rx="3" fill="#7F63EE" mask="url(#capfade)"/><text x="197" y="757.3" class="tw s93"><tspan class="o9">fusion</tspan><tspan class="b" dx="5">25×</tspan><tspan class="o7 s83" dx="5">27.3 ms</tspan></text><text x="174" y="814.0" class="tl mono e b6 s11">repeated</text><text x="174" y="826.0" class="tm mono e s85">0.383 ms</text><rect x="188" y="770" width="76.4" height="14" rx="3" fill="#D7397B"/><text x="271.4" y="780.3" class="tl s93"><tspan>flux</tspan><tspan class="tt b" dx="5">1.0×</tspan><tspan class="tm s83" dx="5">0.383 ms</tspan></text><rect x="188" y="788" width="129.3" height="14" rx="3" fill="#C66300"/><text x="324.3" y="798.3" class="tl s93"><tspan>vide</tspan><tspan class="tt b" dx="5">1.7×</tspan><tspan class="tm s83" dx="5">0.648 ms</tspan></text><rect x="188" y="806" width="90.4" height="14" rx="3" fill="#009C18"/><text x="285.4" y="816.3" class="tl s93"><tspan>signals</tspan><tspan class="tt b" dx="5">1.2×</tspan><tspan class="tm s83" dx="5">0.453 ms</tspan></text><rect x="188" y="824" width="104.5" height="14" rx="3" fill="#0098CB"/><text x="299.5" y="834.3" class="tl s93"><tspan>charm</tspan><tspan class="tt b" dx="5">1.4×</tspan><tspan class="tm s83" dx="5">0.524 ms</tspan></text><rect x="188" y="842" width="366.6" height="14" rx="3" fill="#7F63EE"/><text x="197" y="852.3" class="tw s93"><tspan class="o9">fusion</tspan><tspan class="b" dx="5">4.8×</tspan><tspan class="o7 s83" dx="5">1.84 ms</tspan></text><text x="174" y="909.0" class="tl mono e b6 s11">triangle</text><text x="174" y="921.0" class="tm mono e s85">0.542 ms</text><rect x="188" y="865" width="76.4" height="14" rx="3" fill="#D7397B"/><text x="271.4" y="875.3" class="tl s93"><tspan>flux</tspan><tspan class="tt b" dx="5">1.0×</tspan><tspan class="tm s83" dx="5">0.542 ms</tspan></text><rect x="188" y="883" width="227.8" height="14" rx="3" fill="#C66300"/><text x="197" y="893.3" class="tw s93"><tspan class="o9">vide</tspan><tspan class="b" dx="5">3.0×</tspan><tspan class="o7 s83" dx="5">1.62 ms</tspan></text><rect x="188" y="901" width="119.8" height="14" rx="3" fill="#009C18"/><text x="314.8" y="911.3" class="tl s93"><tspan>signals</tspan><tspan class="tt b" dx="5">1.6×</tspan><tspan class="tm s83" dx="5">0.850 ms</tspan></text><rect x="188" y="919" width="104.7" height="14" rx="3" fill="#0098CB"/><text x="299.7" y="929.3" class="tl s93"><tspan>charm</tspan><tspan class="tt b" dx="5">1.4×</tspan><tspan class="tm s83" dx="5">0.743 ms</tspan></text><rect x="188" y="937" width="459.4" height="14" rx="3" fill="#7F63EE"/><text x="197" y="947.3" class="tw s93"><tspan class="o9">fusion</tspan><tspan class="b" dx="5">6.0×</tspan><tspan class="o7 s83" dx="5">3.26 ms</tspan></text><text x="174" y="1004.0" class="tl mono e b6 s11">unstable</text><text x="174" y="1016.0" class="tm mono e s85">0.596 ms</text><rect x="188" y="960" width="76.4" height="14" rx="3" fill="#D7397B"/><text x="271.4" y="970.3" class="tl s93"><tspan>flux</tspan><tspan class="tt b" dx="5">1.0×</tspan><tspan class="tm s83" dx="5">0.596 ms</tspan></text><rect x="188" y="978" width="124.5" height="14" rx="3" fill="#C66300"/><text x="319.5" y="988.3" class="tl s93"><tspan>vide</tspan><tspan class="tt b" dx="5">1.6×</tspan><tspan class="tm s83" dx="5">0.971 ms</tspan></text><rect x="188" y="996" width="88.1" height="14" rx="3" fill="#009C18"/><text x="283.1" y="1006.3" class="tl s93"><tspan>signals</tspan><tspan class="tt b" dx="5">1.2×</tspan><tspan class="tm s83" dx="5">0.687 ms</tspan></text><rect x="188" y="1014" width="109.6" height="14" rx="3" fill="#0098CB"/><text x="304.6" y="1024.3" class="tl s93"><tspan>charm</tspan><tspan class="tt b" dx="5">1.4×</tspan><tspan class="tm s83" dx="5">0.855 ms</tspan></text><rect x="188" y="1032" width="353.5" height="14" rx="3" fill="#7F63EE"/><text x="197" y="1042.3" class="tw s93"><tspan class="o9">fusion</tspan><tspan class="b" dx="5">4.6×</tspan><tspan class="o7 s83" dx="5">2.76 ms</tspan></text><text x="174" y="1099.0" class="tl mono e b6 s11">mol</text><text x="174" y="1111.0" class="tm mono e s85">0.369 ms</text><rect x="188" y="1055" width="76.6" height="14" rx="3" fill="#D7397B"/><text x="271.6" y="1065.3" class="tl s93"><tspan>flux</tspan><tspan class="tt b" dx="5">1.0×</tspan><tspan class="tm s83" dx="5">0.369 ms</tspan></text><rect x="188" y="1073" width="104.0" height="14" rx="3" fill="#C66300"/><text x="299.0" y="1083.3" class="tl s93"><tspan>vide</tspan><tspan class="tt b" dx="5">1.4×</tspan><tspan class="tm s83" dx="5">0.502 ms</tspan></text><rect x="188" y="1091" width="76.4" height="14" rx="3" fill="#009C18"/><text x="271.4" y="1101.3" class="tl s93"><tspan>signals</tspan><tspan class="tt b" dx="5">1.0×</tspan><tspan class="tm s83" dx="5">0.369 ms</tspan></text><rect x="188" y="1109" width="77.9" height="14" rx="3" fill="#0098CB"/><text x="272.9" y="1119.3" class="tl s93"><tspan>charm</tspan><tspan class="tt b" dx="5">1.0×</tspan><tspan class="tm s83" dx="5">0.376 ms</tspan></text><rect x="188" y="1127" width="211.1" height="14" rx="3" fill="#7F63EE"/><text x="197" y="1137.3" class="tw s93"><tspan class="o9">fusion</tspan><tspan class="b" dx="5">2.8×</tspan><tspan class="o7 s83" dx="5">1.02 ms</tspan></text><text x="0" y="1172" class="tt b s13">cellx<tspan class="tm s11" font-weight="500" dx="8">interlinked layer lattice</tspan></text><text x="174" y="1232.0" class="tl mono e b6 s11">cellx1000</text><text x="174" y="1244.0" class="tm mono e s85">3.93 ms</text><rect x="188" y="1188" width="76.4" height="14" rx="3" fill="#D7397B"/><text x="271.4" y="1198.3" class="tl s93"><tspan>flux</tspan><tspan class="tt b" dx="5">1.0×</tspan><tspan class="tm s83" dx="5">3.93 ms</tspan></text><rect x="188" y="1206" width="77.3" height="14" rx="3" fill="#C66300"/><text x="272.3" y="1216.3" class="tl s93"><tspan>vide</tspan><tspan class="tt b" dx="5">1.0×</tspan><tspan class="tm s83" dx="5">3.98 ms</tspan></text><rect x="188" y="1224" width="133.3" height="14" rx="3" fill="#009C18"/><text x="197" y="1234.3" class="tw s93"><tspan class="o9">signals</tspan><tspan class="b" dx="5">1.7×</tspan><tspan class="o7 s83" dx="5">6.85 ms</tspan></text><rect x="188" y="1242" width="114.5" height="14" rx="3" fill="#0098CB"/><text x="309.5" y="1252.3" class="tl s93"><tspan>charm</tspan><tspan class="tt b" dx="5">1.5×</tspan><tspan class="tm s83" dx="5">5.89 ms</tspan></text><rect x="188" y="1260" width="764" height="14" rx="3" class="dnfr"/><text x="197" y="1270.2" class="dnf s93">fusion · DNF (table overflow)</text><text x="174" y="1327.0" class="tl mono e b6 s11">cellx2500</text><text x="174" y="1339.0" class="tm mono e s85">9.79 ms</text><rect x="188" y="1283" width="80.5" height="14" rx="3" fill="#D7397B"/><text x="275.5" y="1293.3" class="tl s93"><tspan>flux</tspan><tspan class="tt b" dx="5">1.1×</tspan><tspan class="tm s83" dx="5">10.3 ms</tspan></text><rect x="188" y="1301" width="76.4" height="14" rx="3" fill="#C66300"/><text x="271.4" y="1311.3" class="tl s93"><tspan>vide</tspan><tspan class="tt b" dx="5">1.0×</tspan><tspan class="tm s83" dx="5">9.79 ms</tspan></text><rect x="188" y="1319" width="200.6" height="14" rx="3" fill="#009C18"/><text x="197" y="1329.3" class="tw s93"><tspan class="o9">signals</tspan><tspan class="b" dx="5">2.6×</tspan><tspan class="o7 s83" dx="5">25.7 ms</tspan></text><rect x="188" y="1337" width="145.8" height="14" rx="3" fill="#0098CB"/><text x="197" y="1347.3" class="tw s93"><tspan class="o9">charm</tspan><tspan class="b" dx="5">1.9×</tspan><tspan class="o7 s83" dx="5">18.7 ms</tspan></text><rect x="188" y="1355" width="764" height="14" rx="3" class="dnfr"/><text x="197" y="1365.2" class="dnf s93">fusion · DNF (table overflow)</text><text x="0" y="1400" class="tt b s13">dynamic graph<tspan class="tm s11" font-weight="500" dx="8">static + runtime-varying dependencies</tspan></text><text x="174" y="1460.0" class="tl mono e b6 s11">2-10x5 - lazy80%</text><text x="174" y="1472.0" class="tm mono e s85">52.4 ms</text><rect x="188" y="1416" width="76.4" height="14" rx="3" fill="#D7397B"/><text x="271.4" y="1426.3" class="tl s93"><tspan>flux</tspan><tspan class="tt b" dx="5">1.0×</tspan><tspan class="tm s83" dx="5">52.4 ms</tspan></text><rect x="188" y="1434" width="167.2" height="14" rx="3" fill="#C66300"/><text x="197" y="1444.3" class="tw s93"><tspan class="o9">vide</tspan><tspan class="b" dx="5">2.2×</tspan><tspan class="o7 s83" dx="5">115 ms</tspan></text><rect x="188" y="1452" width="110.7" height="14" rx="3" fill="#009C18"/><text x="305.7" y="1462.3" class="tl s93"><tspan>signals</tspan><tspan class="tt b" dx="5">1.4×</tspan><tspan class="tm s83" dx="5">75.9 ms</tspan></text><rect x="188" y="1470" width="101.4" height="14" rx="3" fill="#0098CB"/><text x="296.4" y="1480.3" class="tl s93"><tspan>charm</tspan><tspan class="tt b" dx="5">1.3×</tspan><tspan class="tm s83" dx="5">69.6 ms</tspan></text><rect x="188" y="1488" width="427.7" height="14" rx="3" fill="#7F63EE"/><text x="197" y="1498.3" class="tw s93"><tspan class="o9">fusion</tspan><tspan class="b" dx="5">5.6×</tspan><tspan class="o7 s83" dx="5">293 ms</tspan></text><text x="174" y="1555.0" class="tl mono e b6 s11">6-10x10 - dyn25% - lazy80%</text><text x="174" y="1567.0" class="tm mono e s85">185 ms</text><rect x="188" y="1511" width="76.4" height="14" rx="3" fill="#D7397B"/><text x="271.4" y="1521.3" class="tl s93"><tspan>flux</tspan><tspan class="tt b" dx="5">1.0×</tspan><tspan class="tm s83" dx="5">185 ms</tspan></text><rect x="188" y="1529" width="101.8" height="14" rx="3" fill="#C66300"/><text x="296.8" y="1539.3" class="tl s93"><tspan>vide</tspan><tspan class="tt b" dx="5">1.3×</tspan><tspan class="tm s83" dx="5">246 ms</tspan></text><rect x="188" y="1547" width="123.3" height="14" rx="3" fill="#009C18"/><text x="318.3" y="1557.3" class="tl s93"><tspan>signals</tspan><tspan class="tt b" dx="5">1.6×</tspan><tspan class="tm s83" dx="5">298 ms</tspan></text><rect x="188" y="1565" width="107.2" height="14" rx="3" fill="#0098CB"/><text x="302.2" y="1575.3" class="tl s93"><tspan>charm</tspan><tspan class="tt b" dx="5">1.4×</tspan><tspan class="tm s83" dx="5">259 ms</tspan></text><rect x="188" y="1583" width="764" height="14" rx="3" class="dnfr"/><text x="197" y="1593.2" class="dnf s93">fusion · DNF (timeout)</text><text x="174" y="1650.0" class="tl mono e b6 s11">4-1000x12 - dyn5%</text><text x="174" y="1662.0" class="tm mono e s85">849 ms</text><rect x="188" y="1606" width="76.4" height="14" rx="3" fill="#D7397B"/><text x="271.4" y="1616.3" class="tl s93"><tspan>flux</tspan><tspan class="tt b" dx="5">1.0×</tspan><tspan class="tm s83" dx="5">849 ms</tspan></text><rect x="188" y="1624" width="84.4" height="14" rx="3" fill="#C66300"/><text x="279.4" y="1634.3" class="tl s93"><tspan>vide</tspan><tspan class="tt b" dx="5">1.1×</tspan><tspan class="tm s83" dx="5">938 ms</tspan></text><rect x="188" y="1642" width="133.2" height="14" rx="3" fill="#009C18"/><text x="197" y="1652.3" class="tw s93"><tspan class="o9">signals</tspan><tspan class="b" dx="5">1.7×</tspan><tspan class="o7 s83" dx="5">1480 ms</tspan></text><rect x="188" y="1660" width="102.3" height="14" rx="3" fill="#0098CB"/><text x="297.3" y="1670.3" class="tl s93"><tspan>charm</tspan><tspan class="tt b" dx="5">1.3×</tspan><tspan class="tm s83" dx="5">1137 ms</tspan></text><rect x="188" y="1678" width="764" height="14" rx="3" class="dnfr"/><text x="197" y="1688.2" class="dnf s93">fusion · DNF (timeout)</text><text x="174" y="1745.0" class="tl mono e b6 s11">25-1000x5</text><text x="174" y="1757.0" class="tm mono e s85">2373 ms</text><rect x="188" y="1701" width="76.4" height="14" rx="3" fill="#D7397B"/><text x="271.4" y="1711.3" class="tl s93"><tspan>flux</tspan><tspan class="tt b" dx="5">1.0×</tspan><tspan class="tm s83" dx="5">2373 ms</tspan></text><rect x="188" y="1719" width="116.2" height="14" rx="3" fill="#C66300"/><text x="311.2" y="1729.3" class="tl s93"><tspan>vide</tspan><tspan class="tt b" dx="5">1.5×</tspan><tspan class="tm s83" dx="5">3607 ms</tspan></text><rect x="188" y="1737" width="135.3" height="14" rx="3" fill="#009C18"/><text x="197" y="1747.3" class="tw s93"><tspan class="o9">signals</tspan><tspan class="b" dx="5">1.8×</tspan><tspan class="o7 s83" dx="5">4203 ms</tspan></text><rect x="188" y="1755" width="106.9" height="14" rx="3" fill="#0098CB"/><text x="301.9" y="1765.3" class="tl s93"><tspan>charm</tspan><tspan class="tt b" dx="5">1.4×</tspan><tspan class="tm s83" dx="5">3321 ms</tspan></text><rect x="188" y="1773" width="764" height="14" rx="3" class="dnfr"/><text x="197" y="1783.2" class="dnf s93">fusion · DNF (timeout)</text><text x="174" y="1840.0" class="tl mono e b6 s11">3-5x500</text><text x="174" y="1852.0" class="tm mono e s85">550 ms</text><rect x="188" y="1796" width="76.4" height="14" rx="3" fill="#D7397B"/><text x="271.4" y="1806.3" class="tl s93"><tspan>flux</tspan><tspan class="tt b" dx="5">1.0×</tspan><tspan class="tm s83" dx="5">550 ms</tspan></text><rect x="188" y="1814" width="82.6" height="14" rx="3" fill="#C66300"/><text x="277.6" y="1824.3" class="tl s93"><tspan>vide</tspan><tspan class="tt b" dx="5">1.1×</tspan><tspan class="tm s83" dx="5">595 ms</tspan></text><rect x="188" y="1832" width="129.6" height="14" rx="3" fill="#009C18"/><text x="324.6" y="1842.3" class="tl s93"><tspan>signals</tspan><tspan class="tt b" dx="5">1.7×</tspan><tspan class="tm s83" dx="5">933 ms</tspan></text><rect x="188" y="1850" width="105.1" height="14" rx="3" fill="#0098CB"/><text x="300.1" y="1860.3" class="tl s93"><tspan>charm</tspan><tspan class="tt b" dx="5">1.4×</tspan><tspan class="tm s83" dx="5">756 ms</tspan></text><rect x="188" y="1868" width="764" height="14" rx="3" class="dnfr"/><text x="197" y="1878.2" class="dnf s93">fusion · DNF (table overflow)</text><text x="174" y="1935.0" class="tl mono e b6 s11">6-100x15 - dyn50%</text><text x="174" y="1947.0" class="tm mono e s85">732 ms</text><rect x="188" y="1891" width="76.4" height="14" rx="3" fill="#D7397B"/><text x="271.4" y="1901.3" class="tl s93"><tspan>flux</tspan><tspan class="tt b" dx="5">1.0×</tspan><tspan class="tm s83" dx="5">732 ms</tspan></text><rect x="188" y="1909" width="85.6" height="14" rx="3" fill="#C66300"/><text x="280.6" y="1919.3" class="tl s93"><tspan>vide</tspan><tspan class="tt b" dx="5">1.1×</tspan><tspan class="tm s83" dx="5">819 ms</tspan></text><rect x="188" y="1927" width="127.6" height="14" rx="3" fill="#009C18"/><text x="322.6" y="1937.3" class="tl s93"><tspan>signals</tspan><tspan class="tt b" dx="5">1.7×</tspan><tspan class="tm s83" dx="5">1222 ms</tspan></text><rect x="188" y="1945" width="118.0" height="14" rx="3" fill="#0098CB"/><text x="313.0" y="1955.3" class="tl s93"><tspan>charm</tspan><tspan class="tt b" dx="5">1.5×</tspan><tspan class="tm s83" dx="5">1130 ms</tspan></text><rect x="188" y="1963" width="764" height="14" rx="3" class="dnfr"/><text x="197" y="1973.2" class="dnf s93">fusion · DNF (table overflow)</text><text x="0" y="2008" class="tt b s13">sbench<tspan class="tm s11" font-weight="500" dx="8">create / update throughput</tspan></text><text x="174" y="2068.0" class="tl mono e b6 s11">createSignals</text><text x="174" y="2080.0" class="tm mono e s85">8.70 ms</text><rect x="188" y="2024" width="76.4" height="14" rx="3" fill="#D7397B"/><text x="271.4" y="2034.3" class="tl s93"><tspan>flux</tspan><tspan class="tt b" dx="5">1.0×</tspan><tspan class="tm s83" dx="5">8.70 ms</tspan></text><rect x="188" y="2042" width="78.6" height="14" rx="3" fill="#C66300"/><text x="273.6" y="2052.3" class="tl s93"><tspan>vide</tspan><tspan class="tt b" dx="5">1.0×</tspan><tspan class="tm s83" dx="5">8.95 ms</tspan></text><rect x="188" y="2060" width="161.0" height="14" rx="3" fill="#009C18"/><text x="197" y="2070.3" class="tw s93"><tspan class="o9">signals</tspan><tspan class="b" dx="5">2.1×</tspan><tspan class="o7 s83" dx="5">18.3 ms</tspan></text><rect x="188" y="2078" width="145.5" height="14" rx="3" fill="#0098CB"/><text x="197" y="2088.3" class="tw s93"><tspan class="o9">charm</tspan><tspan class="b" dx="5">1.9×</tspan><tspan class="o7 s83" dx="5">16.6 ms</tspan></text><rect x="188" y="2096" width="112.5" height="14" rx="3" fill="#7F63EE"/><text x="307.5" y="2106.3" class="tl s93"><tspan>fusion</tspan><tspan class="tt b" dx="5">1.5×</tspan><tspan class="tm s83" dx="5">12.8 ms</tspan></text><text x="174" y="2163.0" class="tl mono e b6 s11">createComputations</text><text x="174" y="2175.0" class="tm mono e s85">47.0 ms</text><rect x="188" y="2119" width="76.4" height="14" rx="3" fill="#D7397B"/><text x="271.4" y="2129.3" class="tl s93"><tspan>flux</tspan><tspan class="tt b" dx="5">1.0×</tspan><tspan class="tm s83" dx="5">47.0 ms</tspan></text><rect x="188" y="2137" width="157.2" height="14" rx="3" fill="#C66300"/><text x="197" y="2147.3" class="tw s93"><tspan class="o9">vide</tspan><tspan class="b" dx="5">2.1×</tspan><tspan class="o7 s83" dx="5">96.8 ms</tspan></text><rect x="188" y="2155" width="269.0" height="14" rx="3" fill="#009C18"/><text x="197" y="2165.3" class="tw s93"><tspan class="o9">signals</tspan><tspan class="b" dx="5">3.5×</tspan><tspan class="o7 s83" dx="5">166 ms</tspan></text><rect x="188" y="2173" width="350.9" height="14" rx="3" fill="#0098CB"/><text x="197" y="2183.3" class="tw s93"><tspan class="o9">charm</tspan><tspan class="b" dx="5">4.6×</tspan><tspan class="o7 s83" dx="5">216 ms</tspan></text><rect x="188" y="2191" width="764.0" height="14" rx="3" fill="#7F63EE" mask="url(#capfade)"/><text x="197" y="2201.3" class="tw s93"><tspan class="o9">fusion</tspan><tspan class="b" dx="5">13×</tspan><tspan class="o7 s83" dx="5">632 ms</tspan></text><text x="174" y="2258.0" class="tl mono e b6 s11">updateSignals</text><text x="174" y="2270.0" class="tm mono e s85">57.5 ms</text><rect x="188" y="2214" width="76.4" height="14" rx="3" fill="#D7397B"/><text x="271.4" y="2224.3" class="tl s93"><tspan>flux</tspan><tspan class="tt b" dx="5">1.0×</tspan><tspan class="tm s83" dx="5">57.5 ms</tspan></text><rect x="188" y="2232" width="104.5" height="14" rx="3" fill="#C66300"/><text x="299.5" y="2242.3" class="tl s93"><tspan>vide</tspan><tspan class="tt b" dx="5">1.4×</tspan><tspan class="tm s83" dx="5">78.6 ms</tspan></text><rect x="188" y="2250" width="136.4" height="14" rx="3" fill="#009C18"/><text x="197" y="2260.3" class="tw s93"><tspan class="o9">signals</tspan><tspan class="b" dx="5">1.8×</tspan><tspan class="o7 s83" dx="5">103 ms</tspan></text><rect x="188" y="2268" width="138.3" height="14" rx="3" fill="#0098CB"/><text x="197" y="2278.3" class="tw s93"><tspan class="o9">charm</tspan><tspan class="b" dx="5">1.8×</tspan><tspan class="o7 s83" dx="5">104 ms</tspan></text><rect x="188" y="2286" width="764.0" height="14" rx="3" fill="#7F63EE" mask="url(#capfade)"/><text x="197" y="2296.3" class="tw s93"><tspan class="o9">fusion</tspan><tspan class="b" dx="5">51×</tspan><tspan class="o7 s83" dx="5">2913 ms</tspan></text><text x="0" y="2331" class="tt b s13">teardown &amp; GC<tspan class="tm s11" font-weight="500" dx="8">dispose cost + full-collection reclaim time</tspan></text><text x="174" y="2391.0" class="tl mono e b6 s11">teardown</text><text x="174" y="2403.0" class="tm mono e s85">4.02 ms</text><rect x="188" y="2347" width="131.1" height="14" rx="3" fill="#D7397B"/><text x="326.1" y="2357.3" class="tl s93"><tspan>flux</tspan><tspan class="tt b" dx="5">1.7×</tspan><tspan class="tm s83" dx="5">6.90 ms</tspan></text><rect x="188" y="2365" width="130.6" height="14" rx="3" fill="#C66300"/><text x="325.6" y="2375.3" class="tl s93"><tspan>vide</tspan><tspan class="tt b" dx="5">1.7×</tspan><tspan class="tm s83" dx="5">6.87 ms</tspan></text><rect x="188" y="2383" width="76.4" height="14" rx="3" fill="#009C18"/><text x="271.4" y="2393.3" class="tl s93"><tspan>signals</tspan><tspan class="tt b" dx="5">1.0×</tspan><tspan class="tm s83" dx="5">4.02 ms</tspan></text><rect x="188" y="2401" width="269.1" height="14" rx="3" fill="#0098CB"/><text x="197" y="2411.3" class="tw s93"><tspan class="o9">charm</tspan><tspan class="b" dx="5">3.5×</tspan><tspan class="o7 s83" dx="5">14.2 ms</tspan></text><rect x="188" y="2419" width="465.7" height="14" rx="3" fill="#7F63EE"/><text x="197" y="2429.3" class="tw s93"><tspan class="o9">fusion</tspan><tspan class="b" dx="5">6.1×</tspan><tspan class="o7 s83" dx="5">24.5 ms</tspan></text><text x="174" y="2486.0" class="tl mono e b6 s11">collect</text><text x="174" y="2498.0" class="tm mono e s85">3.61 ms</text><rect x="188" y="2442" width="151.3" height="14" rx="3" fill="#D7397B"/><text x="197" y="2452.3" class="tw s93"><tspan class="o9">flux</tspan><tspan class="b" dx="5">2.0×</tspan><tspan class="o7 s83" dx="5">7.15 ms</tspan></text><rect x="188" y="2460" width="76.4" height="14" rx="3" fill="#C66300"/><text x="271.4" y="2470.3" class="tl s93"><tspan>vide</tspan><tspan class="tt b" dx="5">1.0×</tspan><tspan class="tm s83" dx="5">3.61 ms</tspan></text><rect x="188" y="2478" width="151.6" height="14" rx="3" fill="#009C18"/><text x="197" y="2488.3" class="tw s93"><tspan class="o9">signals</tspan><tspan class="b" dx="5">2.0×</tspan><tspan class="o7 s83" dx="5">7.17 ms</tspan></text><rect x="188" y="2496" width="549.0" height="14" rx="3" fill="#0098CB"/><text x="197" y="2506.3" class="tw s93"><tspan class="o9">charm</tspan><tspan class="b" dx="5">7.2×</tspan><tspan class="o7 s83" dx="5">26.0 ms</tspan></text><rect x="188" y="2514" width="418.3" height="14" rx="3" fill="#7F63EE"/><text x="197" y="2524.3" class="tw s93"><tspan class="o9">fusion</tspan><tspan class="b" dx="5">5.5×</tspan><tspan class="o7 s83" dx="5">19.8 ms</tspan></text><text x="0" y="2559" class="tt b s13">memory<tspan class="tm s11" font-weight="500" dx="8">footprint &amp; retention · 60k-node graph · ×leanest, lower = leaner · excluded from the overall geometric mean</tspan></text><text x="174" y="2619.0" class="tl mono e b6 s11">node footprint</text><text x="174" y="2631.0" class="tm mono e s85">488 B</text><rect x="188" y="2575" width="76.4" height="14" rx="3" fill="#D7397B"/><text x="271.4" y="2585.3" class="tl s93"><tspan>flux</tspan><tspan class="tt b" dx="5">1.0×</tspan><tspan class="tm s83" dx="5">488 B</tspan></text><rect x="188" y="2593" width="80.0" height="14" rx="3" fill="#C66300"/><text x="275.0" y="2603.3" class="tl s93"><tspan>vide</tspan><tspan class="tt b" dx="5">1.0×</tspan><tspan class="tm s83" dx="5">511 B</tspan></text><rect x="188" y="2611" width="171.0" height="14" rx="3" fill="#009C18"/><text x="197" y="2621.3" class="tw s93"><tspan class="o9">signals</tspan><tspan class="b" dx="5">2.2×</tspan><tspan class="o7 s83" dx="5">1091 B</tspan></text><rect x="188" y="2629" width="142.2" height="14" rx="3" fill="#0098CB"/><text x="197" y="2639.3" class="tw s93"><tspan class="o9">charm</tspan><tspan class="b" dx="5">1.9×</tspan><tspan class="o7 s83" dx="5">907 B</tspan></text><rect x="188" y="2647" width="189.4" height="14" rx="3" fill="#7F63EE"/><text x="197" y="2657.3" class="tw s93"><tspan class="o9">fusion</tspan><tspan class="b" dx="5">2.5×</tspan><tspan class="o7 s83" dx="5">1209 B</tspan></text><text x="174" y="2714.0" class="tl mono e b6 s11">build retained</text><text x="174" y="2726.0" class="tm mono e s85">513 KB</text><rect x="188" y="2670" width="76.4" height="14" rx="3" fill="#D7397B"/><text x="271.4" y="2680.3" class="tl s93"><tspan>flux</tspan><tspan class="tt b" dx="5">1.0×</tspan><tspan class="tm s83" dx="5">513 KB</tspan></text><rect x="188" y="2688" width="152.8" height="14" rx="3" fill="#C66300"/><text x="197" y="2698.3" class="tw s93"><tspan class="o9">vide</tspan><tspan class="b" dx="5">2.0×</tspan><tspan class="o7 s83" dx="5">1.0 MB</tspan></text><rect x="188" y="2706" width="76.4" height="14" rx="3" fill="#009C18"/><text x="271.4" y="2716.3" class="tl s93"><tspan>signals</tspan><tspan class="tt b" dx="5">1.0×</tspan><tspan class="tm s83" dx="5">513 KB</tspan></text><rect x="188" y="2724" width="76.4" height="14" rx="3" fill="#0098CB"/><text x="271.4" y="2734.3" class="tl s93"><tspan>charm</tspan><tspan class="tt b" dx="5">1.0×</tspan><tspan class="tm s83" dx="5">513 KB</tspan></text><rect x="188" y="2742" width="764.0" height="14" rx="3" fill="#7F63EE" mask="url(#capfade)"/><text x="197" y="2752.3" class="tw s93"><tspan class="o9">fusion</tspan><tspan class="b" dx="5">12×</tspan><tspan class="o7 s83" dx="5">6.0 MB</tspan></text><text x="174" y="2809.0" class="tl mono e b6 s11">steady retained</text><text x="174" y="2821.0" class="tm mono e s85">0 KB</text><rect x="188" y="2765" width="2.5" height="14" rx="3" fill="#D7397B"/><text x="197.5" y="2775.3" class="tl s93"><tspan>flux</tspan><tspan class="tt b" dx="5"></tspan><tspan class="tm s83" dx="5">0 KB</tspan></text><rect x="188" y="2783" width="2.5" height="14" rx="3" fill="#C66300"/><text x="197.5" y="2793.3" class="tl s93"><tspan>vide</tspan><tspan class="tt b" dx="5"></tspan><tspan class="tm s83" dx="5">0 KB</tspan></text><rect x="188" y="2801" width="2.5" height="14" rx="3" fill="#009C18"/><text x="197.5" y="2811.3" class="tl s93"><tspan>signals</tspan><tspan class="tt b" dx="5"></tspan><tspan class="tm s83" dx="5">0 KB</tspan></text><rect x="188" y="2819" width="2.5" height="14" rx="3" fill="#0098CB"/><text x="197.5" y="2829.3" class="tl s93"><tspan>charm</tspan><tspan class="tt b" dx="5"></tspan><tspan class="tm s83" dx="5">0 KB</tspan></text><rect x="188" y="2837" width="2.5" height="14" rx="3" fill="#7F63EE"/><text x="197.5" y="2847.3" class="tl s93"><tspan>fusion</tspan><tspan class="tt b" dx="5"></tspan><tspan class="tm s83" dx="5">0 KB</tspan></text><text x="0" y="2889" class="tm s95">Port of <a href="https://github.com/milomg/js-reactivity-benchmark" class="lnk">milomg/js-reactivity-benchmark</a> · normalised per row to the fastest framework (1.0×, shorter = faster) · process-isolated, fastest-of-N per run.</text><text x="0" y="2903" class="tm s95">Faded bars exceed 10× (true multiple labelled) · a DNF is charged its benchmark's time budget (per-bench cap, else the 60s process cap) in the geomean (an unexpected error is excluded instead).</text></svg>
